<?xml version="1.0" encoding="UTF-8" standalone="no"?>
<!-- Generator: Adobe Illustrator 25.4.1, SVG Export Plug-In . SVG Version: 6.00 Build 0)  -->

<svg
   version="1.1"
   id="Capa_1"
   x="0px"
   y="0px"
   viewBox="0 0 512.02 452"
   style="enable-background:new 0 0 512.02 452;"
   xml:space="preserve"
   sodipodi:docname="beach-and-road-cleaning_untitled-font-1.svg"
   inkscape:version="1.1.1 (3bf5ae0d25, 2021-09-20)"
   xmlns:inkscape="http://www.inkscape.org/namespaces/inkscape"
   xmlns:sodipodi="http://sodipodi.sourceforge.net/DTD/sodipodi-0.dtd"
   xmlns="http://www.w3.org/2000/svg"
   xmlns:svg="http://www.w3.org/2000/svg"><defs
   id="defs7" /><sodipodi:namedview
   id="namedview5"
   pagecolor="#ffffff"
   bordercolor="#666666"
   borderopacity="1.0"
   inkscape:pageshadow="2"
   inkscape:pageopacity="0.0"
   inkscape:pagecheckerboard="0"
   showgrid="false"
   inkscape:zoom="1.079646"
   inkscape:cx="254.25"
   inkscape:cy="225.53689"
   inkscape:window-width="1280"
   inkscape:window-height="652"
   inkscape:window-x="0"
   inkscape:window-y="0"
   inkscape:window-maximized="1"
   inkscape:current-layer="Capa_1" />
<path
   d="M300,350c-4,0-7-1-11-1s-8,0-12-1l59-148c4,1,7,3,11,4l9,4L300,350z M302,181h1c7-15,15-29,24-42c3-3,2-8-1-11  c-4-2-9-1-11,2c-8,11-14,22-20,33c-3,5-5,9-7,13c-11-12-26-22-43-29c-14-5-29-8-44-8c10-11,26-28,48-42c21-14,43-24,65-28  c21-4,43-3,64,3c-11,7-22,14-32,23l-11,11c-3,3-3,8,0,11c3,2,8,2,11-1c10-10,20-19,32-26c6-4,12-7,18-10c1,4,3,9,5,16  c9,33,7,68-1,101l-6,21c-11-11-23-20-37-26h-1C339,184,321,180,302,181z M508,427c-13-9-28-13-43-12c-14-19-40-35-76-47  c-22-8-47-13-74-17l54-135c8,6,15,13,21,21c2,3,5,4,8,3c18-3,37-1,55,6s33,19,44,34c1,2,4,3,6,3h2c3-1,5-4,5-7c1-2,7-49-8-101  c-2-4-6-6-10-5c-4,2-6,6-5,10c9,30,10,59,10,77c-11-11-24-19-39-25c-16-6-34-9-50-8v-1c6-18,10-37,12-56c2-17,3-34,0-51  c-1-10-3-20-6-30c27,15,48,36,62,64c2,4,6,6,10,4s5-7,3-10c-19-38-48-64-87-80c-54-21-110-14-162,20c-39,26-62,58-63,60s-1,5,0,8  c2,3,5,4,8,3c18-3,37-1,55,6s33,19,43,33c3,3,6,5,9,4c10-2,20-2,29-1l-60,151h-4c-35,0-68,3-99,10c-4,1-6,5-6,9c1,4,5,7,9,6  c30-7,63-10,96-10c15,0,31,1,47,2c29,3,56,9,80,17c29,9,51,22,64,36c-7,2-13,5-19,9c-19,13-43,13-62,0c-24-16-55-16-79,0  c-19,13-43,13-62,0c-24-16-56-16-80,0c-18,13-43,13-62,0c-6-4-12-7-19-9c13-14,35-27,64-36c4-1,6-6,5-10s-6-6-10-4  c-36,12-62,28-76,47c-15-1-30,3-43,12c-3,3-4,7-2,11c2,3,7,4,11,2c11-8,24-11,37-10c0,0,0,1,1,1c8,1,16,4,24,9c24,16,55,16,79,0  c19-13,43-13,62,0c24,16,55,16,79,0c19-13,44-13,63,0c12,8,25,12,39,12s28-4,40-12c7-5,15-8,23-9c1,0,1-1,2-1c13-1,26,2,37,10  c3,2,8,1,10-2C513,434,512,430,508,427z M46,36L36,25c-3-3-8-3-11,0s-3,8,0,11l11,11c1,1,3,2,5,2s4-1,5-2C49,44,49,39,46,36z M23,78  H8c-5,0-8,4-8,8s3,7,8,7h15c4,0,7-3,7-7S27,78,23,78z M46,125c-3-3-7-3-10,0l-11,11c-3,3-3,7,0,10c2,2,3,3,5,3s4-1,6-3l10-10  C49,133,49,128,46,125z M86,141c-5,0-8,4-8,8v15c0,4,3,7,8,7c4,0,7-3,7-7v-15C93,145,90,141,86,141z M146,136l-11-11c-2-3-7-3-10,0  s-3,8,0,11l11,10c1,2,3,3,5,3s4-1,5-3C149,143,149,139,146,136z M164,78h-15c-5,0-8,4-8,8s3,7,8,7h15c4,0,7-3,7-7S168,78,164,78z   M146,25c-3-3-8-3-10,0l-11,11c-3,3-3,8,0,11c1,1,3,2,5,2s4-1,5-2l11-11C149,33,149,28,146,25z M86,0c-5,0-8,4-8,8v15c0,4,3,7,8,7  c4,0,7-3,7-7V8C93,4,90,0,86,0z M86,119c-19,0-34-15-34-33c0-19,15-34,34-34c18,0,33,15,33,34C119,104,104,119,86,119z M86,37  c-27,0-49,22-49,49s22,48,49,48c26,0,48-21,48-48S112,37,86,37z"
   id="path2"
   style="fill:#bc9742;fill-opacity:1" />
</svg>
