<?xml version="1.0" encoding="UTF-8" standalone="no"?>
<!-- Generator: Adobe Illustrator 25.4.1, SVG Export Plug-In . SVG Version: 6.00 Build 0)  -->

<svg
   version="1.1"
   id="Capa_1"
   x="0px"
   y="0px"
   viewBox="0 0 504.29 504.29"
   style="enable-background:new 0 0 504.29 504.29;"
   xml:space="preserve"
   sodipodi:docname="buildings-and-auxiliary-facilities_untitled-font-1.svg"
   inkscape:version="1.1.1 (3bf5ae0d25, 2021-09-20)"
   xmlns:inkscape="http://www.inkscape.org/namespaces/inkscape"
   xmlns:sodipodi="http://sodipodi.sourceforge.net/DTD/sodipodi-0.dtd"
   xmlns="http://www.w3.org/2000/svg"
   xmlns:svg="http://www.w3.org/2000/svg"><defs
   id="defs7" /><sodipodi:namedview
   id="namedview5"
   pagecolor="#ffffff"
   bordercolor="#666666"
   borderopacity="1.0"
   inkscape:pageshadow="2"
   inkscape:pageopacity="0.0"
   inkscape:pagecheckerboard="0"
   showgrid="false"
   inkscape:zoom="0.96769714"
   inkscape:cx="250.59493"
   inkscape:cy="252.66169"
   inkscape:window-width="1280"
   inkscape:window-height="652"
   inkscape:window-x="0"
   inkscape:window-y="0"
   inkscape:window-maximized="1"
   inkscape:current-layer="Capa_1" />
<path
   d="M478,469.29c-16,15-40,15-56,0l-125-136l45-45l136,125C493,429.29,493,453.29,478,469.29z M270,304.29l43-42l14,13l-43,44  L270,304.29z M180,366.29c-2,3-3,7-2,10c8,25,4,51-11,71c-15,21-38,33-64,33h-8l31-31c2-2,3-5,3-7v-28c0-3-1-5-3-7l-28-28  c-2-2-4-3-7-3H63c-2,0-5,1-7,3l-31,31v-8c0-26,12-49,32-64c21-15,47-19,72-11c3,1,7,0,10-2c0-1,194-195,195-195c2-3,3-7,2-10  c-8-25-4-51,11-71c15-21,38-33,64-33h8l-30,31c-2,2-3,5-3,7v28c0,3,1,5,3,7l27,28c2,2,4,3,7,3h28c2,0,5-1,7-3l31-31v8  c0,44-35,79-78,79c-9,0-18-1-26-4c-3-1-7,0-10,2C326,221.29,220,327.29,180,366.29z M491,399.29l-135-125l5-5c4-4,4-10,0-14  s-10-4-14,0l-6,6l-14-13l58-58c8,2,17,3,26,3c54,0,98-44,98-99c0-10-2-21-5-31c-1-3-4-6-7-6c-4-1-7,0-9,2l-41,41h-20l-21-22v-20  l40-41c2-2,3-5,2-9c0-3-3-6-6-7c-10-3-21-5-31-5c-33,0-62,15-80,41c-18,24-23,54-16,83l-72,72l-44-44c-4-4-10-4-14,0s-4,10,0,14  l44,44l-14,14l-124-124c-1-1-4-2-7-2H62l-35-59l17-17l58,35v22c0,3,1,6,3,7l43,43l3,3c2,2,4,3,7,3c2,0,5-1,7-3c4-4,4-11,0-15l-43-42  v-23c0-4-2-7-5-9l-69-42c-4-2-9-1-12,2l-28,28c-3,3-4,8-2,12l42,69c2,3,5,5,9,5h23l121,121l-72,72c-29-7-59-2-83,16  c-26,18-41,47-41,80c0,10,2,21,5,31c1,3,4,6,7,6c4,1,7,0,9-2l41-41h20l22,22v20l-41,41c-2,2-3,5-2,9c0,3,3,6,6,7c10,3,21,5,31,5  c32,0,62-15,80-41c18-24,23-54,16-83l58-58l13,14l-6,7c-4,3-4,10,0,13c4,4,10,4,14,0l5-5l125,135v1c23,23,61,23,84,0s23-61,0-84H491  z M436,441.29c4,4,10,4,14,0s4-10,0-14l-89-88c-4-4-10-4-14,0c-4,3-4,10,0,13L436,441.29z M312,179.29l-124,124c-3,3-3,10,0,14  c4,3,11,3,14,0l124-124c3-3,3-10,0-14C322,176.29,315,176.29,312,179.29z M168,328.29c-6,0-10,4-10,9c0,6,4,10,10,10c5,0,9-4,9-10  C177,332.29,173,328.29,168,328.29z M346,149.29c-5,0-9,4-9,10c0,5,4,9,9,9c6,0,10-4,10-9C356,153.29,352,149.29,346,149.29z"
   id="path2"
   style="fill:#bc9742;fill-opacity:1" />
</svg>
