<?xml version="1.0" encoding="UTF-8" standalone="no"?>
<!-- Generator: Adobe Illustrator 25.4.1, SVG Export Plug-In . SVG Version: 6.00 Build 0)  -->

<svg
   version="1.1"
   id="Capa_1"
   x="0px"
   y="0px"
   viewBox="0 0 512 488"
   style="enable-background:new 0 0 512 488;"
   xml:space="preserve"
   sodipodi:docname="business-center_untitled-font-1.svg"
   inkscape:version="1.1.1 (3bf5ae0d25, 2021-09-20)"
   xmlns:inkscape="http://www.inkscape.org/namespaces/inkscape"
   xmlns:sodipodi="http://sodipodi.sourceforge.net/DTD/sodipodi-0.dtd"
   xmlns="http://www.w3.org/2000/svg"
   xmlns:svg="http://www.w3.org/2000/svg"><defs
   id="defs7" /><sodipodi:namedview
   id="namedview5"
   pagecolor="#ffffff"
   bordercolor="#666666"
   borderopacity="1.0"
   inkscape:pageshadow="2"
   inkscape:pageopacity="0.0"
   inkscape:pagecheckerboard="0"
   showgrid="false"
   inkscape:zoom="1"
   inkscape:cx="254.5"
   inkscape:cy="244.5"
   inkscape:window-width="1280"
   inkscape:window-height="652"
   inkscape:window-x="0"
   inkscape:window-y="0"
   inkscape:window-maximized="1"
   inkscape:current-layer="Capa_1" />
<path
   d="M393,83c2,0,4-1,6-3l55-54l-12-12l-53,53l-2,1c-3,4-3,9,0,12C389,82,391,83,393,83z M368,342l-90,90c-6,6-16,6-23,1l35-35  c5-5,8-12,8-19c0-14-12-25-26-25c0-14-11-25-25-25c0-14-11-25-25-26c0-13-11-25-26-25c-6,0-13,3-18,8l-31,31l-33-34v-18l109-108  l10,10c2,2,4,3,6,3h30l8,8l-61,61c-1,2-2,4-2,6s1,4,2,6c22,22,58,21,79,0l3-3l70,71c3,3,5,7,5,11C373,335,371,339,368,342z M238,426  c-1,2-4,3-6,3c-5,0-9-5-9-10c0-2,0-5,2-6l40-40c2-2,4-3,7-3c5,0,9,4,9,9c0,3-1,5-3,7L238,426z M213,401c-1,2-4,2-6,2c-5,0-10-4-10-9  c0-2,1-5,3-6l40-40c2-2,4-3,7-3c5,0,9,4,9,9c0,3-1,5-3,7L213,401z M188,376c-1,1-4,2-6,2c-5,0-10-4-10-9c0-2,1-5,3-7l40-39  c2-2,4-3,6-3c6,0,10,4,10,9c0,3-1,5-3,7L188,376z M163,351c-1,1-4,2-6,2c-5,0-10-4-10-9c0-2,1-5,3-7l40-39c2-2,4-3,6-3  c6,0,10,4,10,9c0,3-1,5-3,7L163,351z M83,230l106-107l22,22L105,250L83,230z M512,201l-12-12L381,308c-1,0-1-1-1-1l-71-70l11-11  l-12-12l-24,25c-14,13-34,15-50,5l61-60l76-76c3-3,3-8,0-11c-3-4-8-4-12-1l-70,70l-11-10c-1-2-3-3-5-3h-30L112,22l-12,12l77,78  L71,218l-60-54L0,176l97,89v22c0,2,1,4,3,6l36,36c-3,4-5,9-5,15c0,14,11,26,25,26c0,14,11,25,25,25c0,14,11,25,25,25  c0,14,12,25,26,25c3,0,7-1,10-2l1,1c6,6,14,10,23,10s18-4,24-10l90-90c6-6,9-15,9-24v-6L512,201z M458,376c-4-3-11-2-14,2  c-7,9-14,17-21,24c-4,4-4,11,0,15c2,2,4,3,6,3c3,0,6-1,9-3c8-8,15-17,22-26C464,386,463,380,458,376z M281,467c-10,1-21,1-32,0  c-6-1-11,4-11,9c0,6,4,11,10,12h34c6-1,11-6,10-11C292,471,287,466,281,467z M343,453c-10,4-20,7-30,9c-6,2-10,7-8,13c1,4,4,8,9,8h3  c11-3,22-6,33-10c6-2,8-8,6-13C354,454,348,451,343,453z M488,316c-6-2-12,1-14,7c-4,9-8,19-13,28c-3,6-1,12,4,15c1,0,3,1,4,1  c4,0,8-2,10-5c6-11,11-21,15-32C496,324,493,318,488,316z M399,423c-9,6-18,12-27,17c-5,3-7,9-4,14c2,4,5,6,8,6c2,0,4,0,6-1  c10-6,20-12,29-19c5-4,6-10,2-15C410,421,403,420,399,423z M160,42c1,0,2,0,4-1c10-4,20-8,30-11c5-1,8-7,7-13c-2-5-8-8-13-7  c-11,3-22,8-33,12c-5,3-7,9-5,14C152,40,156,42,160,42z M499,250c-6,0-11,4-11,10v1c-1,10-3,21-5,31c-1,6,2,11,8,13h2c5,0,9-3,11-8  c2-12,4-23,5-35C509,256,505,251,499,250z M39,304c6-1,10-7,8-12c-2-11-3-21-4-32c-1-6-6-10-11-9c-6,0-10,5-10,11c1,11,2,23,5,34  c1,5,5,8,9,8H39z M223,24h2c10-2,21-3,31-3c6,0,11-4,11-10s-5-11-11-11c-11,0-23,1-34,3c-6,1-10,6-9,12C214,20,218,24,223,24z   M288,23c11,2,21,4,31,7h3c5,0,9-2,10-7c2-6-1-11-7-13c-11-3-22-6-34-7c-6-1-11,3-12,9C279,17,282,23,288,23z M349,41  c10,5,19,10,28,15c2,1,4,2,6,2c3,0,7-2,9-5c3-5,1-11-4-14c-9-6-20-12-30-17c-5-2-12,0-14,5C342,33,344,39,349,41z M218,462  c-11-2-21-5-31-9c-5-2-11,1-13,6c-2,6,1,12,6,14c11,4,22,7,33,10h2c5,0,10-3,11-8C227,469,223,463,218,462z M87,378c-4-5-10-6-15-2  c-5,3-5,10-2,14c7,10,15,19,23,27c2,2,4,3,6,3c3,0,6-1,9-3c4-4,4-11,0-15C100,394,93,386,87,378z M70,351c-6-9-10-19-14-29  c-2-5-8-8-13-6c-6,2-8,8-6,14c4,10,9,21,14,31c2,3,5,5,9,6c2,0,4-1,5-2C70,363,72,356,70,351z M158,440c-9-5-18-11-26-17  c-5-4-12-3-15,2c-4,5-3,11,2,15c9,6,19,13,29,18c2,1,3,2,5,2c3,0,7-2,9-6C165,449,163,443,158,440z M64,145c5,0,8,4,8,8c0,5-3,9-8,9  s-8-4-8-9C56,149,59,145,64,145z M64,178c14,0,25-11,25-25s-11-25-25-25s-25,11-25,25S50,178,64,178z"
   id="path2"
   style="fill:#bc9742;fill-opacity:1" />
</svg>
