<?xml version="1.0" encoding="UTF-8" standalone="no"?>
<!-- Generator: Adobe Illustrator 25.4.1, SVG Export Plug-In . SVG Version: 6.00 Build 0)  -->

<svg
   version="1.1"
   id="Capa_1"
   x="0px"
   y="0px"
   viewBox="0 0 512.2 468.2"
   style="enable-background:new 0 0 512.2 468.2;"
   xml:space="preserve"
   sodipodi:docname="electricity_untitled-font-1.svg"
   inkscape:version="1.1.1 (3bf5ae0d25, 2021-09-20)"
   xmlns:inkscape="http://www.inkscape.org/namespaces/inkscape"
   xmlns:sodipodi="http://sodipodi.sourceforge.net/DTD/sodipodi-0.dtd"
   xmlns="http://www.w3.org/2000/svg"
   xmlns:svg="http://www.w3.org/2000/svg"><defs
   id="defs7" /><sodipodi:namedview
   id="namedview5"
   pagecolor="#ffffff"
   bordercolor="#666666"
   borderopacity="1.0"
   inkscape:pageshadow="2"
   inkscape:pageopacity="0.0"
   inkscape:pagecheckerboard="0"
   showgrid="false"
   inkscape:zoom="1.0422896"
   inkscape:cx="254.72767"
   inkscape:cy="234.57972"
   inkscape:window-width="1280"
   inkscape:window-height="652"
   inkscape:window-x="0"
   inkscape:window-y="0"
   inkscape:window-maximized="1"
   inkscape:current-layer="Capa_1" />
<path
   d="M482.2,67.2h-44v-45c0-10-9-18-19-18c-11,0-19,8-19,18v45h-44c-11,0-19,8-19,19c0,10,8,18,19,18h44v45c0,10,8,19,19,19  c10,0,19-9,19-19v-45h44c10,0,19-8,19-18C501.2,75.2,492.2,67.2,482.2,67.2z M494.2,371.2c24-23,24-62,0-85c-23-24-62-24-85,0  l-32,32c-9,9-24,9-33,0l-57-58c-3-3-8-5-13-5s-10,2-13,5c-16,16-37,25-59,25s-43-9-59-25l-52-51l118-118l52,52c14,14,23,34,24,54  c0,10,9,18,19,18h1c10-1,18-10,17-20c-1-30-14-58-35-78l-52-52l6-6c7-7,7-19,0-27c-7-7-19-7-26,0l-37,37l-64-64c-8-7-20-7-27,0  c-7,8-7,19,0,27l64,64l-55,55l-64-64c-7-7-19-7-27,0c-7,7-7,19,0,26l65,64l-37,37c-8,8-8,20,0,27c3,4,8,5,13,5s10-1,13-5l6-6l52,52  c23,23,53,35,85,35c26,0,50-8,71-23l45,45c12,12,27,18,43,18c15,0,31-6,42-18l32-32c9-9,24-9,33,0s9,24,0,32l-32,33  c-12,11-18,26-18,42s6,32,18,43c3,4,8,6,13,6s10-2,13-6c8-7,8-19,0-27c-4-4-6-10-6-16s2-12,6-16L494.2,371.2z"
   id="path2"
   style="fill:#bc9742;fill-opacity:1" />
</svg>
