<?xml version="1.0" encoding="UTF-8" standalone="no"?>
<!-- Generator: Adobe Illustrator 25.4.1, SVG Export Plug-In . SVG Version: 6.00 Build 0)  -->

<svg
   version="1.1"
   id="Capa_1"
   x="0px"
   y="0px"
   viewBox="0 0 493.78 499"
   style="enable-background:new 0 0 493.78 499;"
   xml:space="preserve"
   sodipodi:docname="emergency-response_untitled-font-1.svg"
   inkscape:version="1.1.1 (3bf5ae0d25, 2021-09-20)"
   xmlns:inkscape="http://www.inkscape.org/namespaces/inkscape"
   xmlns:sodipodi="http://sodipodi.sourceforge.net/DTD/sodipodi-0.dtd"
   xmlns="http://www.w3.org/2000/svg"
   xmlns:svg="http://www.w3.org/2000/svg"><defs
   id="defs7" /><sodipodi:namedview
   id="namedview5"
   pagecolor="#ffffff"
   bordercolor="#666666"
   borderopacity="1.0"
   inkscape:pageshadow="2"
   inkscape:pageopacity="0.0"
   inkscape:pagecheckerboard="0"
   showgrid="false"
   inkscape:zoom="0.97795591"
   inkscape:cx="244.89857"
   inkscape:cy="250.01127"
   inkscape:window-width="1280"
   inkscape:window-height="652"
   inkscape:window-x="0"
   inkscape:window-y="0"
   inkscape:window-maximized="1"
   inkscape:current-layer="Capa_1" />
<path
   d="M353.78,280c-9,0-17-1-26-2c-8-2-13-9-11-17c1-8,9-13,16-12c7,2,15,2,22,2c61,0,110-50,110-111s-50-111-111-111  c-60,0-110,49-111,110c0,19,5,38,14,54c1,4,2,7,1,11l-7,26l13-3c8-3,15,2,17,10c3,7-2,15-10,17l-30,9c-7,1-13-1-18-5c-5-5-6-11-5-18  l11-38c-10-20-15-42-15-64c1-37,16-71,42-97s61-40,98-40c77,0,140,62,140,139c0,38-15,73-41,99s-61,41-98,41H353.78z M402.78,127  h-31V96c0-8-7-14-15-14s-14,6-14,14v31h-31c-8,0-14,6-14,14s6,15,14,15h31v30c0,8,6,15,14,15s15-7,15-15v-30h31c8,0,14-7,14-15  S410.78,127,402.78,127z M44.78,149c-4,6-8,12-11,19c-2,7-4,14-5,21c0,0-2,20,9,54c10,30,33,78,86,132c67,67,118,96,169,96  c6,0,11-1,17-1h1c6-1,13-3,20-6c7-2,13-6,19-10l8-8c5-5,8-11,8-18s-3-14-8-19l-42-42c-5-5-12-8-19-8s-13,3-18,8l-2,2l-19,19  c-4,5-11,6-17,3c-1,0-1,0-2-1c-1,0-2-1-3-1c-19-11-45-25-73-53s-42-54-52-73h-1c0-1-1-2-2-4c0,0,0-1-1-2c-3-5-2-12,3-17l21-21  c10-10,10-27,0-37l-41-41c-5-5-12-8-18-8c-8,0-14,3-19,8L44.78,149z M292.78,500c-59,0-116-32-189-105c-47-46-78-95-94-144  c-12-38-10-63-9-66c1-9,3-18,6-27c4-10,10-19,16-27c0-1,1-1,1-2l8-8c11-11,25-17,40-17c14,0,28,6,38,17l41,41c22,21,22,56,0,77  l-13,14c9,17,22,39,45,62s45,36,62,46l11-12v-1l2-2c11-10,25-16,39-16c15,0,29,6,39,16l42,43c11,10,17,24,16,39c0,14-5,28-16,39  l-8,8c-1,0-1,1-2,1c-8,6-17,12-27,15c-9,4-18,6-27,7C306.78,499,299.78,500,292.78,500z"
   id="path2"
   style="fill:#bc9742;fill-opacity:1" />
</svg>
