<?xml version="1.0" encoding="UTF-8" standalone="no"?>
<!-- Generator: Adobe Illustrator 25.4.1, SVG Export Plug-In . SVG Version: 6.00 Build 0)  -->

<svg
   version="1.1"
   id="Capa_1"
   x="0px"
   y="0px"
   viewBox="0 0 502.55 318.73"
   style="enable-background:new 0 0 502.55 318.73;"
   xml:space="preserve"
   sodipodi:docname="fundacion-punta-mita_untitled-font-1.svg"
   inkscape:version="1.1.1 (3bf5ae0d25, 2021-09-20)"
   xmlns:inkscape="http://www.inkscape.org/namespaces/inkscape"
   xmlns:sodipodi="http://sodipodi.sourceforge.net/DTD/sodipodi-0.dtd"
   xmlns="http://www.w3.org/2000/svg"
   xmlns:svg="http://www.w3.org/2000/svg"><defs
   id="defs7" /><sodipodi:namedview
   id="namedview5"
   pagecolor="#ffffff"
   bordercolor="#666666"
   borderopacity="1.0"
   inkscape:pageshadow="2"
   inkscape:pageopacity="0.0"
   inkscape:pagecheckerboard="0"
   showgrid="false"
   inkscape:zoom="1.5310764"
   inkscape:cx="250.47738"
   inkscape:cy="159.69157"
   inkscape:window-width="1280"
   inkscape:window-height="652"
   inkscape:window-x="0"
   inkscape:window-y="0"
   inkscape:window-maximized="1"
   inkscape:current-layer="Capa_1" />
<path
   d="M295.01,119.22c50-42,150-109,150-109s20.45-10.23,36.97-10.23c11.19,0,20.57,4.69,20.57,20.43  c0,11.37-4.9,28.5-17.54,53.79c-55,112-97,119-103,173c-4.73,42.6-2.62,71.51-28.03,71.51c-6.8,0-15.57-2.07-26.97-6.51  c-30-11-73-27-73-89c1-52,0-34,3-54C259.01,149.22,279.01,132.22,295.01,119.22z M208.01,119.22c-51-42-150-109-150-109  S37.56,0,20.94,0C9.57,0,0,4.79,0,20.91c0,11.37,4.76,28.38,17.01,53.32c55,112,97,119,103,173c5.52,42.6,3.58,71.51,29.02,71.51  c6.81,0,15.58-2.07,26.98-6.51c28.68-10.88,72.02-26.64,72.02-86.93c0-51.71-0.13-37.23-2.02-56.07  C243.01,149.22,223.01,132.22,208.01,119.22z"
   id="path2"
   style="fill:#bc9742;fill-opacity:1" />
</svg>
