<?xml version="1.0" encoding="UTF-8" standalone="no"?>
<!-- Generator: Adobe Illustrator 25.4.1, SVG Export Plug-In . SVG Version: 6.00 Build 0)  -->

<svg
   version="1.1"
   id="Capa_1"
   x="0px"
   y="0px"
   viewBox="0 0 512 502"
   style="enable-background:new 0 0 512 502;"
   xml:space="preserve"
   sodipodi:docname="gallery_untitled-font-1.svg"
   inkscape:version="1.1.1 (3bf5ae0d25, 2021-09-20)"
   xmlns:inkscape="http://www.inkscape.org/namespaces/inkscape"
   xmlns:sodipodi="http://sodipodi.sourceforge.net/DTD/sodipodi-0.dtd"
   xmlns="http://www.w3.org/2000/svg"
   xmlns:svg="http://www.w3.org/2000/svg"><defs
   id="defs7" /><sodipodi:namedview
   id="namedview5"
   pagecolor="#ffffff"
   bordercolor="#666666"
   borderopacity="1.0"
   inkscape:pageshadow="2"
   inkscape:pageopacity="0.0"
   inkscape:pagecheckerboard="0"
   showgrid="false"
   inkscape:zoom="0.97211155"
   inkscape:cx="254.60041"
   inkscape:cy="251.51434"
   inkscape:window-width="1280"
   inkscape:window-height="652"
   inkscape:window-x="0"
   inkscape:window-y="0"
   inkscape:window-maximized="1"
   inkscape:current-layer="Capa_1" />
<path
   d="M492,346l-34-31l-20-15c-13-6-29-4-40,5l-45,38c-5,4-12,6-18,4c-6-1-12-5-15-10l-31-58l-18-33l-32-58c-6-13-19-20-33-20  c-14-1-27,7-34,19L74,352V102c0-21,17-38,38-38h62c5,0,10-4,10-10c0-5-5-10-10-10h-62c-32,0-58,26-58,58v336c-19-2-34-18-34-38V86  c0-36,30-66,66-66h314c16,0,30,10,35,24H254c-6,0-10,5-10,10c0,6,4,10,10,10h184h20c19,2,34,18,34,38V346z M492,444  c0,21-17,38-38,38H112c-16,0-30-10-35-24c-2-4-3-9-3-14v-53l115-194c4-6,10-10,17-9c6,0,13,3,16,9l49,91l72,132c2,3,5,5,9,5  c1,0,3,0,5-1c4-3,6-9,4-14l-24-42c11,0,21-3,29-10l45-37c7-6,17-6,24,0l3,3l20,18l34,31V444z M456,44c-6-25-29-44-56-44H86  C39,0,0,39,0,86v314c0,31,25,57,56,58c6,25,29,44,56,44h342c32,0,58-26,58-58V102C512,71,487,45,456,44z M223,50l-1-1c0-1-1-1-1-2  c-1,0-1-1-2-1c0,0-1-1-2-1c0,0-1,0-1-1h-4c-1,1-2,1-2,1c-1,0-1,1-2,1l-1,1l-2,2c0,0,0,1-1,1v2v2v2v2c1,1,1,1,1,2c1,0,1,1,2,1  c0,1,1,1,1,2c1,0,1,0,2,1h2h2h2h1c1-1,2-1,2-1l2-2l1-1c0-1,1-1,1-2v-2c1,0,1-1,1-2c0,0,0-1-1-2V50z M380,446c0,0,0-1-1-2  c0,0,0-1-1-1c0-1-1-1-1-1c-1-1-2-1-2-1c-1,0-1-1-2-1h-4c-1,0-1,1-2,1c0,0-1,0-2,1c0,0-1,0-1,1c-1,0-1,1-1,1c-1,1-1,2-1,2  c0,1-1,1-1,2v2v2c0,1,1,1,1,2c0,0,0,1,1,2c0,0,0,1,1,1c0,0,0,1,1,1c1,1,2,1,2,1c1,0,1,1,2,1h2h2c1,0,1-1,2-1c0,0,1,0,2-1  c1,0,1-1,1-1c1,0,1-1,1-1c1-1,1-2,1-2c0-1,1-1,1-2v-2v-2C381,447,380,447,380,446z M380,209c-18,0-32-14-32-31c0-18,14-32,32-32  c17,0,31,14,31,32C411,195,397,209,380,209z M380,126c-29,0-52,23-52,52c0,28,23,51,52,51c28,0,51-23,51-51C431,149,408,126,380,126  z"
   id="path2"
   style="fill:#bc9742;fill-opacity:1" />
</svg>
