<?xml version="1.0" encoding="UTF-8" standalone="no"?>
<!-- Generator: Adobe Illustrator 25.4.1, SVG Export Plug-In . SVG Version: 6.00 Build 0)  -->

<svg
   version="1.1"
   id="Capa_1"
   x="0px"
   y="0px"
   viewBox="0 0 508.18 512.07"
   style="enable-background:new 0 0 508.18 512.07;"
   xml:space="preserve"
   sodipodi:docname="gardening_untitled-font-1 copia.svg"
   inkscape:version="1.1.1 (3bf5ae0d25, 2021-09-20)"
   xmlns:inkscape="http://www.inkscape.org/namespaces/inkscape"
   xmlns:sodipodi="http://sodipodi.sourceforge.net/DTD/sodipodi-0.dtd"
   xmlns="http://www.w3.org/2000/svg"
   xmlns:svg="http://www.w3.org/2000/svg"><defs
   id="defs7" /><sodipodi:namedview
   id="namedview5"
   pagecolor="#ffffff"
   bordercolor="#666666"
   borderopacity="1.0"
   inkscape:pageshadow="2"
   inkscape:pageopacity="0.0"
   inkscape:pagecheckerboard="0"
   showgrid="false"
   inkscape:zoom="0.95299469"
   inkscape:cx="252.36237"
   inkscape:cy="256.55967"
   inkscape:window-width="1280"
   inkscape:window-height="652"
   inkscape:window-x="0"
   inkscape:window-y="0"
   inkscape:window-maximized="1"
   inkscape:current-layer="Capa_1" />
<path
   d="M71.03,365.07c-13-13-17-33-18-44c11,1,31,4,45,17c13,14,16,34,17,45C104.03,382.07,84.03,378.07,71.03,365.07z   M148.03,338.07c13-13,34-16,44-17c0,11-4,31-17,44s-33,17-44,18C132.03,372.07,135.03,352.07,148.03,338.07z M214.03,461.07  c-25-24-53-37-84-39v-24c13-1,38-5,56-22c23-24,22-61,22-63c0-4-4-7-8-7c-1,0-39-2-62,22c-7,7-12,14-15,22c-3-8-8-15-15-22  c-23-24-61-22-63-22c-3,0-7,3-7,7c0,2-1,39,22,63c18,17,43,21,55,22v23c-22,2-43,9-62,23c-4,2-4,6-2,10c2,3,7,4,10,2  c19-13,40-20,62-20c29,0,56,12,80,36c10,9,17,18,22,25h-204c4-6,10-14,18-23c3-3,3-7,0-10s-7-3-10,0c-19,18-28,36-28,37  c-3,5,1,11,6,11h231c6,0,9-6,7-11C244.03,500.07,234.03,481.07,214.03,461.07z M229.03,155.07c-3-5-7-14-9-24c-4-23,1-43,15-60  l39,39L229.03,155.07z M393.03,60.07c8-7,18-12,28-13c9,0,18,4,27,14c11,12,13,29,6,49L393.03,60.07z M419.03,15.07c19-1,37,7,53,24  c26,29,20,65,8,93l-14-12c11-28,9-52-7-69c-12-13-25-19-39-19c-15,1-29,10-39,18l-14-11C381.03,28.07,399.03,16.07,419.03,15.07z   M126.03,266.07h-8l6-65c18,4,25,13,27,17l-4,37C143.03,261.07,136.03,265.07,126.03,266.07z M508.03,172.07c0-11-5-21-14-28l-2-2  c26-57,10-93-9-113s-41-30-65-29c-28,2-52,19-67,33v1l-66,66l-44-45c-3-3-8-3-11,0c-22,22-30,49-24,79c4,22,14,37,15,38l22,26  l-81,10c-4-7-17-20-44-22c-4-1-8,2-8,6l-8,80c0,2,1,4,2,6c2,2,4,2,6,3c6,1,12,1,18,0c12-1,23-6,29-15l54,13c4,1,8-2,9-6s-2-8-5-9  l-53-12l3-29l89-11l64,77l-74-18c-4-1-8,2-9,6s1,8,5,9l94,22c11,12,30,15,45,9c4-2,8-5,12-9l50-50c3-3,3-7,0-10s-8-3-11,0l-50,50  c-5,5-12,7-19,7s-13-3-18-9l-106-128l53-53l66-66l122,101l6,5c6,5,9,11,9,18c1,7-2,14-7,19l-31,31c-3,3-3,8,0,11c2,3,7,3,10,0l32-32  C505.03,194.07,509.03,184.07,508.03,172.07z"
   id="path2"
   style="fill:#bc9742;fill-opacity:1" />
</svg>
