<svg height="512" viewBox="0 0 60 37" width="512" xmlns="http://www.w3.org/2000/svg"><g id="Page-1" fill="none" fill-rule="evenodd"><g id="024---Gas-Storage" fill="rgb(0,0,0)" fill-rule="nonzero"><path id="Shape" d="m10.443 12.331c.3394023-.1127173.592889-.3979413.6649741-.748231s-.0481828-.7124276-.3155-.95-.6410718-.3144863-.9804741-.201769c-3.27074053 1.0976718-5.55775437 4.0580798-5.794 7.5-.0189333.2656908.06891536.5279559.24406498.7286365.17514962.2006805.42312462.3231908.68893502.3403635h.066c.52786536.0011162.96568985-.4082497 1-.935.18244344-2.6307705 1.92981234-4.8933943 4.429-5.735z"/><path id="Shape" d="m56 15h-4c0-1.6568542-1.3431458-3-3-3h-3.843c-1.9898272-3.2631655-5.3631902-5.43667665-9.157-5.9v-2.6c0-1.93299662-1.5670034-3.5-3.5-3.5s-3.5 1.56700338-3.5 3.5v2.5h-2v-2.5c0-1.93299662-1.5670034-3.5-3.5-3.5s-3.5 1.56700338-3.5 3.5v2.5h-2v-2.5c0-1.9329966-1.5670034-3.49999993-3.5-3.49999993s-3.5 1.56700333-3.5 3.49999993v2.6c-5.4930381.67021129-9.89165937 4.8723613-10.81200057 10.3290656-.92034121 5.4567044 1.85666487 10.8691134 6.82600057 13.3039344l-.975 4.875c-.02419044.1292315-.03557887.2605334-.034.392h-5.005c-.55228475 0-1 .4477153-1 1s.44771525 1 1 1h58c.5522847 0 1-.4477153 1-1v-17c0-2.209139-1.790861-4-4-4zm-2 20h-13c.0015539-.131797-.009834-.2634282-.034-.393l-.978-4.889c1.2395047-.6068962 2.3722437-1.411026 3.354-2.381.9689508-.9744165 1.7706933-2.1018564 2.373-3.337h3.285c1.6568542 0 3-1.3431458 3-3h2zm-5-21c.5522847 0 1 .4477153 1 1v6c0 .5522847-.4477153 1-1 1h-2.5c.3310287-1.1372191.4993662-2.3155816.5-3.5-.0021205-1.5398905-.2910478-3.0659149-.852-4.5zm-18-10.5c0-.82842712.6715729-1.5 1.5-1.5s1.5.67157288 1.5 1.5v2.5h-3zm-9 0c0-.8284271.6715729-1.49999994 1.5-1.49999994s1.5.67157284 1.5 1.49999994v2.5h-3zm-7.5-1.5c.3984777-.0021424.7812546.1552048 1.0630249.43697512s.4391175.66454723.4369751 1.06302488l.0000216 2.5h-3.0000216v-2.5c0-.82842712.6715729-1.5 1.5-1.5zm-12.5 16.5c.00331009-5.7976182 4.70238176-10.49668991 10.5-10.5h22c4.2458463.00131077 8.0730376 2.559538 9.6976753 6.4822622s.7269362 8.4378157-2.2746753 11.4407378c-.6981604.6904067-1.4878801 1.281603-2.347 1.757l-.215-1.073c-.189751-.932995-1.0089088-1.6042783-1.961-1.607h-2.8c-.9520912.0027217-1.771249.674005-1.961 1.607l-.478 2.393h-17.322l-.478-2.393c-.189751-.932995-1.0089088-1.6042783-1.961-1.607h-2.8c-.9520912.0027217-1.77124901.674005-1.961 1.607l-.216 1.082c-3.35269964-1.8401501-5.43264887-5.3645191-5.423-9.189zm32.6 7.5v1zm-18.639 8.607-.722-3.607h16.522l-.722 3.608c-.0241904.1292315-.0355789.2605334-.034.392h-15.005c-.0000935-.1319613-.0131563-.263594-.039-.393zm-6.361-8.607v1zm-1.6 9 1.6-8h2.8l1.6 8zm25 0 1.6-8h2.8l1.6 8zm23 0v-15c0-.5522847-.4477153-1-1-1h-3v-2h4c1.1045695 0 2 .8954305 2 2v16z"/><path id="Shape" d="m21.955 26.707c.7546563.1942028 1.5307563.2926431 2.31.293 2.1631497.1020677 4.2457635-.8313769 5.609-2.514 1.015367-1.4191145 1.3669121-3.2082021.964-4.906-.2732073-1.0993418-.7379791-2.1419471-1.373-3.08-.6416962-.9057676-1.3885822-1.7322095-2.225-2.462l-.291-.274c-.4122049-.364585-.6715057-.8714003-.726-1.419-.01-.095-.016-.193-.019-.289l-.052-2.079c-.0103555-.40229701-.260854-.75918966-.6356786-.90567035-.3748247-.1464807-.8009352-.05400541-1.0813214.23467035l-1.416 1.462c-.142.146-.287.289-.454.453-.4025954.3814587-.7803674.7882901-1.131 1.218-.9743603 1.0504831-1.3507182 2.5227954-1 3.912.1218908.375707.2919749.7340265.506 1.066.1397361.202896.2463954.4266779.316.663.027.131-.013.172-.031.191-.056.056-.148.087-.343.082-.1780538-.0514778-.3361165-.1561551-.453-.3l-1.045-1.187c-.2433479-.276433-.6189419-.3967365-.9776109-.3131306-.3586689.0836058-.642355.3575876-.7383891.7131306l-.42 1.551c-.5858298 1.9586496-.1944009 4.0795094 1.052 5.7.9666721 1.0854331 2.2419483 1.8495521 3.655 2.19zm-2.831-7.13c.3613408.351678.8101938.6002735 1.3.72.8037392.1849596 1.6462739-.053394 2.234-.632.5069926-.525498.71722-1.2699281.56-1.983-.1092944-.460708-.2992203-.8984515-.561-1.293-.122549-.1879078-.2232032-.3892161-.3-.6-.1486424-.768928.0950269-1.5614154.65-2.114.2993386-.3623341.6209616-.7056659.963-1.028l.251-.248c0 .054.009.107.014.16.1058596 1.0207736.583099 1.9670672 1.341 2.659l.3.282c.7219702.6238447 1.3677723 1.3307362 1.924 2.106.5043804.7414875.8740417 1.5661164 1.092 2.436.2709635 1.1252743.042365 2.3127468-.627 3.257-.990403 1.1660744-2.4731183 1.7962284-4 1.7-.607201.0000028-1.2119764-.0766021-1.8-.228-1.012632-.2368669-1.929641-.7752174-2.63-1.544-.7818743-1.0442866-1.0437379-2.388593-.711-3.65z"/></g></g></svg>