<svg id="Capa_1" enable-background="new 0 0 512 512" height="512" viewBox="0 0 512 512" width="512" xmlns="http://www.w3.org/2000/svg"><g><path d="m319.006 303.452c.055-11.994-3.036-23.076-8.708-31.209-13.86-19.838-26.178-38.513-28.705-63.344-1.318-5.409-4.691-7.493-10.118-6.254-1.73.655-39.685 15.507-45.689 56.562l-13.873-4.056c-3.625-1.056-7.459.735-8.974 4.188-6.766 15.433-10.11 30.295-9.939 44.106.012 34.723 28.273 62.972 62.998 62.972h.001s.001 0 .001 0c.589 0 1.176-.014 1.76-.043 16.176-.441 31.314-6.923 42.791-18.4 11.895-11.896 18.449-27.707 18.455-44.522zm-111.007-.01c0-10.736 2.457-22.086 6.194-31.996l16.204 4.737c5.526.812 8.728-1.54 9.604-7.057.504-26.545 17.464-41.293 28.191-47.985 2.339 12.616 6.453 23.641 12.471 33.474 6.143 10.023 11.963 18.524 17.335 26.213 3.86 5.536 6.05 13.762 6.008 22.567v.036c0 12.366-4.662 24.013-13.135 32.962 1.18-7.931-.369-15.585-4.647-22.961-7.388-8.628-11.954-18.596-13.696-29.903-1.318-5.409-4.691-7.494-10.118-6.255-.894.338-19.311 7.542-24.382 27.043l-3.021-.883c-3.619-1.058-7.458.735-8.973 4.188-4.5 9.369-6.133 18.947-4.9 28.736-8.129-8.598-13.131-20.181-13.135-32.916zm47.999 47.975c-11.162 0-20.245-9.08-20.249-20.237 0-.03 0-.071-.001-.102-.043-3.544.541-7.322 1.74-11.291l4.659 1.362c5.526.812 8.727-1.54 9.603-7.057.157-8.314 4.095-13.99 8.022-17.6 1.289 4.433 3.068 8.484 5.361 12.233 3.12 5.09 6.07 9.398 8.789 13.291 1.499 2.148 2.348 5.473 2.33 9.119.001 11.205-9.036 20.282-20.254 20.282z"/><path d="m408.662 221.8c4.136 0 7.488-3.352 7.488-7.488v-18.729c0-50.424-38.539-92.012-87.708-96.865v-91.23c0-4.136-3.352-7.488-7.488-7.488h-129.908c-4.136 0-7.488 3.352-7.488 7.488v29.153c0 4.136 3.352 7.488 7.488 7.488s7.488-3.352 7.488-7.488v-21.665h114.932v83.265h-29.289v-47.573c0-4.136-3.352-7.488-7.488-7.488h-41.378c-4.136 0-7.488 3.352-7.488 7.488v47.573h-29.289v-28.964c0-4.136-3.352-7.488-7.488-7.488s-7.488 3.352-7.488 7.488v29.44c-49.169 4.853-87.708 46.442-87.708 96.865v214.082c0 26.052 19.109 47.718 44.045 51.738v43.109c0 4.136 3.352 7.488 7.488 7.488h217.235c4.136 0 7.488-3.352 7.488-7.488v-43.109c24.936-4.02 44.045-25.686 44.045-51.738v-162.725c0-4.136-3.352-7.488-7.488-7.488s-7.488 3.352-7.488 7.488v136.938h-212.516c-4.136 0-7.488 3.352-7.488 7.488s3.352 7.488 7.488 7.488h212.515v10.813c0 20.644-16.795 37.439-37.439 37.439h-215.47c-20.644 0-37.439-16.795-37.439-37.439v-10.813h45.207c4.136 0 7.488-3.352 7.488-7.488s-3.352-7.488-7.488-7.488h-45.207v-188.294c0-4.553.388-9.016 1.102-13.37h288.145c.714 4.354 1.102 8.817 1.102 13.37v18.729c-.001 4.136 3.351 7.488 7.487 7.488zm-51.532 275.224h-202.26v-34.943h202.26zm-114.331-438.869h26.402v40.085h-26.402zm-126.946 109.082c11.58-31.494 41.878-54.021 77.338-54.021h125.616c35.461 0 65.759 22.527 77.338 54.021z"/></g></svg>