<?xml version="1.0" encoding="UTF-8" standalone="no"?>
<!-- Generator: Adobe Illustrator 25.4.1, SVG Export Plug-In . SVG Version: 6.00 Build 0)  -->

<svg
   version="1.1"
   id="Capa_1"
   x="0px"
   y="0px"
   viewBox="0 0 480 480"
   style="enable-background:new 0 0 480 480;"
   xml:space="preserve"
   sodipodi:docname="hospital_untitled-font-1.svg"
   inkscape:version="1.1.1 (3bf5ae0d25, 2021-09-20)"
   xmlns:inkscape="http://www.inkscape.org/namespaces/inkscape"
   xmlns:sodipodi="http://sodipodi.sourceforge.net/DTD/sodipodi-0.dtd"
   xmlns="http://www.w3.org/2000/svg"
   xmlns:svg="http://www.w3.org/2000/svg"><defs
   id="defs7" /><sodipodi:namedview
   id="namedview5"
   pagecolor="#ffffff"
   bordercolor="#666666"
   borderopacity="1.0"
   inkscape:pageshadow="2"
   inkscape:pageopacity="0.0"
   inkscape:pagecheckerboard="0"
   showgrid="false"
   inkscape:zoom="1.0166667"
   inkscape:cx="238.52459"
   inkscape:cy="240.4918"
   inkscape:window-width="1280"
   inkscape:window-height="652"
   inkscape:window-x="0"
   inkscape:window-y="0"
   inkscape:window-maximized="1"
   inkscape:current-layer="Capa_1" />
<path
   d="M456,439h-92V205h92V439z M466,466H14v-13h452V466z M247,335h49v104h-49V335z M184,439V335h49v104H184z M130,132h220v307  h-40V328c0-4-3-7-7-7H177c-4,0-7,3-7,7v111h-40V132z M14,179h102v12H14V179z M112,107h109c4,0,7-3,7-7s-3-7-7-7h-39V14h116v79h-37  c-4,0-7,3-7,7s3,7,7,7h107v11H112V107z M473,205c4,0,7-4,7-7v-26c0-4-3-7-7-7h-43c-4,0-7,3-7,7s3,7,7,7h36v12H364v-12h31  c4,0,7-3,7-7s-3-7-7-7h-31v-33h11c4,0,7-3,7-7v-25c0-4-3-7-7-7h-63V7c0-4-3-7-7-7H174c-3,0-7,3-7,7v86h-62c-4,0-7,3-7,7v25  c0,4,3,7,7,7h11v33H7c-4,0-7,3-7,7v26c0,3,3,7,7,7h3v46c0,4,3,7,7,7s7-3,7-7v-46h92v234H24V286c0-4-3-7-7-7s-7,3-7,7v153H7  c-4,0-7,3-7,7v27c0,4,3,7,7,7h466c4,0,7-3,7-7v-27c0-4-3-7-7-7h-3V205H473z M233,75c0,4,3,7,7,7s7-3,7-7V60h15c3,0,7-3,7-7  c0-3-4-7-7-7h-15V32c0-4-3-7-7-7s-7,3-7,7v14h-15c-4,0-7,4-7,7c0,4,3,7,7,7h15V75z M300,182h24v62h-24V182z M293,258h39c3,0,7-3,7-7  v-76c0-4-4-7-7-7h-39c-3,0-7,3-7,7v76C286,255,290,258,293,258z M398,291h24v62h-24V291z M391,367h38c4,0,7-3,7-7v-76c0-4-3-7-7-7  h-38c-4,0-7,3-7,7v76C384,364,387,367,391,367z M58,291h24v62H58V291z M89,367c4,0,7-3,7-7v-76c0-4-3-7-7-7H51c-4,0-7,3-7,7v76  c0,4,3,7,7,7H89z M228,182h24v62h-24V182z M221,258h38c4,0,7-3,7-7v-76c0-4-3-7-7-7h-38c-4,0-7,3-7,7v76C214,255,217,258,221,258z   M155,182h24v62h-24V182z M186,258c4,0,8-3,8-7v-76c0-4-4-7-8-7h-38c-4,0-7,3-7,7v76c0,4,3,7,7,7H186z"
   id="path2"
   style="fill:#bc9742;fill-opacity:1" />
</svg>
