<?xml version="1.0" encoding="UTF-8" standalone="no"?>
<svg
   id="Capa_1"
   data-name="Capa 1"
   viewBox="0 0 200 200"
   version="1.1"
   sodipodi:docname="icon-map-brochure.svg"
   inkscape:version="1.1.1 (3bf5ae0d25, 2021-09-20)"
   xmlns:inkscape="http://www.inkscape.org/namespaces/inkscape"
   xmlns:sodipodi="http://sodipodi.sourceforge.net/DTD/sodipodi-0.dtd"
   xmlns="http://www.w3.org/2000/svg"
   xmlns:svg="http://www.w3.org/2000/svg">
  <sodipodi:namedview
     id="namedview17"
     pagecolor="#ffffff"
     bordercolor="#666666"
     borderopacity="1.0"
     inkscape:pageshadow="2"
     inkscape:pageopacity="0.0"
     inkscape:pagecheckerboard="0"
     showgrid="false"
     inkscape:zoom="2.395"
     inkscape:cx="20.250522"
     inkscape:cy="100.20877"
     inkscape:window-width="1280"
     inkscape:window-height="652"
     inkscape:window-x="0"
     inkscape:window-y="0"
     inkscape:window-maximized="1"
     inkscape:current-layer="Capa_1" />
  <defs
     id="defs4">
    <style
       id="style2">.cls-1{fill:#bc9742;}</style>
  </defs>
  <title
     id="title6">ICONOS</title>
  <path
     class="cls-1"
     d="M160,181.41H51.78a2,2,0,0,1-2-2V60.16a2,2,0,0,1,2-2H160a2,2,0,0,1,2,2V179.42A2,2,0,0,1,160,181.41Zm-106.24-4H158V62.15H53.77Z"
     id="path8"
     style="fill:#bc9742;fill-opacity:1" />
  <path
     class="cls-1"
     d="M51.42,181.39A2,2,0,0,1,50.2,181l-11.43-8.89a2,2,0,0,1-.77-1.57V49.72a2,2,0,0,1,3.31-1.49L52.17,57.8a2,2,0,0,1-2.63,3L42,54.13V169.54l10.66,8.29a2,2,0,0,1-1.22,3.56Z"
     id="path10"
     style="fill:#bc9742;fill-opacity:1" />
  <path
     class="cls-1"
     d="M134,149.88H74.83a2,2,0,1,1,0-4H134a2,2,0,1,1,0,4Z"
     id="path12"
     style="fill:#bc9742;fill-opacity:1" />
  <path
     class="cls-1"
     d="M112.84,62.15h4v-3.8h-4ZM68,58.35H61.2l4.73,3.8h6.35l-1.27-1Zm56.78,3.8h4v-3.8h-4Zm27.5-13.55a2,2,0,0,0-1.43-.57l-9.69.16V39.26a2,2,0,0,0-2.19-2l-10.21,1V29.38a2,2,0,0,0-.75-1.55,1.94,1.94,0,0,0-1.67-.39l-9.55,2.11v-9a2,2,0,0,0-2.71-1.85L39.46,47.63a2,2,0,0,0,1.43,3.71l8.85-3.43a2,2,0,0,0,.71,1.8L54,52.55h65.37l5.46-.09,16.38-.29,7.73-.13V62.15h4V50A2,2,0,0,0,152.31,48.6ZM112.84,23.49v6.94l-42,9.31Zm0,16.45L67.55,44.55l45.29-10v0l4-.91h0l8-1.77v6.87l-8,.81m20.39,8.72-8.42.15-15.95.27-55,1a1.76,1.76,0,0,1-.39-.06l55.37-5.63v0l4-.4v0l8-.81v0l4-.4v0l8.42-.85Zm0,13.89h4v-3.8h-4Z"
     id="path14"
     style="fill:#bc9742;fill-opacity:1" />
</svg>
