<?xml version="1.0" encoding="utf-8"?>
<!-- Generator: Adobe Illustrator 26.0.1, SVG Export Plug-In . SVG Version: 6.00 Build 0)  -->
<svg version="1.1" id="Capa_1" xmlns="http://www.w3.org/2000/svg" xmlns:xlink="http://www.w3.org/1999/xlink" x="0px" y="0px"
	 viewBox="0 0 155.06 150.42" style="enable-background:new 0 0 155.06 150.42;" xml:space="preserve">
<style type="text/css">
	.st0{fill:#074C2C;}
</style>
<g>
	<path class="st0" d="M99.05,37.87c-7.72-11.32-10.72-14.85-15.16-19C56.11-7.07,33.71,1.89,22.35,11.83
		c-51.88,45.35,13.27,96.79,13.27,96.79s2.89,2.05,4.44,0.28c1.13-1.29-2.22-4-2.22-4S2.72,68.51,43.06,37.31
		c0,0,23.83-18.8,54.93,1.9c0,0,22.77,26.55-2.9,53.77c-26.89,28.5-38.2,2.31-35.25-4.72c1.44-3.45,4.67-8.44,12.81-7.02
		c0,0,6.29,0.49,6.09,8.37c-0.12,4.92-3.47,5.73-6.06,6.53c-1.54,0.47-3.28,0.42-2.65,2.56c0.95,3.27,14.85,6.42,25.06-5.72
		c9.16-10.91-6.3-30.11-24.01-30.2c-10.78-0.05-26.37,9.18-26.37,30.08c0,30.11,42.2,46.99,68.68,20.37
		C144.69,81.77,99.05,37.87,99.05,37.87"/>
	<path class="st0" d="M42.9,110.55c1.08,1.42,2.72,3.44,4.9,5.91c2.21,2.44,4.97,5.31,8.36,8.25c3.42,2.91,7.47,5.9,12.17,8.32
		c4.7,2.41,10.07,4.21,15.79,4.58c5.71,0.4,11.74-0.64,17.66-3.06c5.92-2.42,11.71-6.11,17.19-10.56
		c38.88-37.83,9.94-82.27,6.5-87.51c-3-4.56-6.74-8.04-10.19-10.82c-3.42-2.8-6.76-4.78-9.68-5.96c-2.93-1.17-5.4-1.66-7.1-1.78
		c-0.85-0.06-1.51-0.09-1.95-0.07c-0.44,0-0.67,0.01-0.67,0.01h-0.08c-0.49,0-0.9-0.4-0.9-0.89c0-0.43,0.3-0.79,0.7-0.88
		c0,0,0.24-0.06,0.72-0.16c0.48-0.12,1.19-0.25,2.14-0.36c1.89-0.2,4.74-0.25,8.24,0.55c3.47,0.82,7.6,2.35,11.79,4.98
		c4.19,2.61,8.61,6.08,12.73,10.52c8.25,8.82,15.94,21.18,19.58,36.26c1.79,7.51,2.51,15.69,1.49,23.99
		c-1,8.28-3.91,16.61-8.51,23.85c-2.31,3.63-4.93,6.93-7.99,10.05c-2.86,2.89-5.86,5.5-9.02,8.01c-6.3,4.96-13.28,9.22-20.84,11.86
		c-3.76,1.35-7.66,2.26-11.57,2.65c-3.89,0.42-7.78,0.33-11.47-0.26c0,0-34.46-3.4-43.03-34.95c0,0-0.81-1.8,0.61-2.87
		C41.91,109.12,42.9,110.55,42.9,110.55"/>
</g>
</svg>
