<?xml version="1.0" encoding="UTF-8" standalone="no"?>
<svg
   enable-background="new 0 0 130 130"
   height="130px"
   id="icon"
   version="1.1"
   viewBox="0 0 130 130"
   width="130px"
   xml:space="preserve"
   sodipodi:docname="police.svg"
   inkscape:version="1.1.1 (3bf5ae0d25, 2021-09-20)"
   xmlns:inkscape="http://www.inkscape.org/namespaces/inkscape"
   xmlns:sodipodi="http://sodipodi.sourceforge.net/DTD/sodipodi-0.dtd"
   xmlns="http://www.w3.org/2000/svg"
   xmlns:svg="http://www.w3.org/2000/svg"><defs
     id="defs15" /><sodipodi:namedview
     id="namedview13"
     pagecolor="#ffffff"
     bordercolor="#666666"
     borderopacity="1.0"
     inkscape:pageshadow="2"
     inkscape:pageopacity="0.0"
     inkscape:pagecheckerboard="0"
     showgrid="false"
     inkscape:zoom="3.7538462"
     inkscape:cx="64.60041"
     inkscape:cy="65.133197"
     inkscape:window-width="1280"
     inkscape:window-height="652"
     inkscape:window-x="0"
     inkscape:window-y="0"
     inkscape:window-maximized="1"
     inkscape:current-layer="icon" /><g
     id="g8"><path
       d="M103.034,121.46   c0.012-0.498,0.087-0.96,0.087-1.454c0-21.459-8.018-39.988-25.487-45.703L65.816,91.191L52.682,74.516   c-16.484,5.265-23.8,20.928-23.8,41.904c0,1.688,0.051,3.366,0.145,5.041L103.034,121.46L103.034,121.46z"
       fill="none"
       stroke="#3262F9"
       stroke-miterlimit="10"
       stroke-width="2"
       id="path2"
       style="stroke:#bc9742;stroke-opacity:1" /><ellipse
       cx="64.45"
       cy="20.57"
       fill="#3262F9"
       rx="2.626"
       ry="2.654"
       id="ellipse4"
       style="fill:#bc9742;fill-opacity:1" /><polygon
       fill="none"
       points="84.391,48.196 84.18,47.803 83.954,47.525    83.652,47.369 83.148,47.13 83.148,46.175 83.098,43.722 82.355,39.979 81.5,34.875 80.667,36.417 77.75,39.417 73.5,41.833    68.617,43.854 65.333,44.667 61.5,44.25 57.25,42.667 52.25,40.167 49.917,38.083 47.792,36.708 47.764,37.838 47.076,39.985    46.557,43.725 46.749,46.175 46.749,47.13 46.002,47.369 45.558,47.525 45.279,47.803 45.048,48.196 44.891,48.57 44.672,49.854    44.72,51.825 44.81,52.404 44.928,52.948 45.516,54.892 45.842,55.589 46.132,56.14 46.413,56.584 46.731,56.885 47.162,57.134    47.725,57.344 48.358,59.672 48.729,60.717 49.146,61.791 49.642,62.98 50.234,64.111 50.938,65.373 51.913,66.842 53.139,68.396    53.734,69.027 54.498,69.773 55.898,70.97 58.031,72.475 58.727,72.859 59.529,73.277 60.557,73.691 61.341,73.893 62.42,74.201    63.498,74.417 64.824,74.579 66.031,74.417 67.048,74.201 68.098,73.943 68.868,73.718 69.887,73.291 70.691,72.867 71.38,72.479    73.512,70.97 74.914,69.773 75.678,69.027 76.271,68.396 77.495,66.842 78.473,65.373 79.175,64.111 79.768,62.98 80.262,61.791    80.68,60.717 81.05,59.672 81.686,57.344 82.246,57.134 82.675,56.885 82.998,56.584 83.283,56.14 83.568,55.589 83.896,54.892    84.484,52.948 84.604,52.404 84.693,51.825 84.746,49.854 84.529,48.57  "
       stroke="#3262F9"
       stroke-miterlimit="10"
       stroke-width="2"
       id="polygon6"
       style="stroke:#bc9742;stroke-opacity:1" /></g><path
     d="M64.5,10.042L64.5,10.042C49.306,10.06,37,15.932,37,23.167c0,3.754,3.324,7.137,8.636,9.53l1.571,3.907  c0,0-0.047-0.101-0.026-0.021c3.585,3.917,5.252,6.125,14.502,8.75l2.817,0.394v0.001l0.006-0.001l0.01,0.001v-0.003l2.817-0.393  c9.25-2.625,10.917-4.833,14.502-8.75c0.021-0.08-0.026,0.021-0.026,0.021l1.571-3.907c5.312-2.393,8.636-5.776,8.636-9.53  C92.016,15.929,79.701,10.055,64.5,10.042z M64.505,43.567C58.502,43.398,49.227,37.951,48.016,33h16.5v0H81  C79.788,37.952,70.507,43.402,64.505,43.567z M81.835,31.449H64.5v0H47.181c-6.165-1.449-8.666-6.368-8.665-8.324  C38.766,16,52.08,11.584,63.349,11.5c0.383-0.022,0.772-0.037,1.166-0.046c0.389,0.009,0.773,0.024,1.153,0.046  C76.936,11.584,90.25,16,90.5,23.125C90.501,25.081,88,30,81.835,31.449z"
     fill="#3262F9"
     id="path10"
     style="fill:#bc9742;fill-opacity:1" /></svg>
