<?xml version="1.0" encoding="UTF-8" standalone="no"?>
<!-- Generator: Adobe Illustrator 25.4.1, SVG Export Plug-In . SVG Version: 6.00 Build 0)  -->

<svg
   version="1.1"
   id="Capa_1"
   x="0px"
   y="0px"
   viewBox="0 0 512 256"
   style="enable-background:new 0 0 512 256;"
   xml:space="preserve"
   sodipodi:docname="shuttle_untitled-font-1.svg"
   inkscape:version="1.1.1 (3bf5ae0d25, 2021-09-20)"
   xmlns:inkscape="http://www.inkscape.org/namespaces/inkscape"
   xmlns:sodipodi="http://sodipodi.sourceforge.net/DTD/sodipodi-0.dtd"
   xmlns="http://www.w3.org/2000/svg"
   xmlns:svg="http://www.w3.org/2000/svg"><defs
   id="defs7" /><sodipodi:namedview
   id="namedview5"
   pagecolor="#ffffff"
   bordercolor="#666666"
   borderopacity="1.0"
   inkscape:pageshadow="2"
   inkscape:pageopacity="0.0"
   inkscape:pagecheckerboard="0"
   showgrid="false"
   inkscape:zoom="1.90625"
   inkscape:cx="255.21311"
   inkscape:cy="127.7377"
   inkscape:window-width="1280"
   inkscape:window-height="652"
   inkscape:window-x="0"
   inkscape:window-y="0"
   inkscape:window-maximized="1"
   inkscape:current-layer="Capa_1" />
<path
   d="M115,17h73v68H68L115,17z M510,165l-7-6V9c0-5-3-9-8-9h-44h-1c-4,0-8,4-8,9c0,4,4,8,8,8h20h16v111h-8c-5,0-9,4-9,9  c0,4,4,8,9,8h8v17c0,3,1,5,3,6l6,6v10l-6,6c-2,2-3,4-3,6v9h-17c-4-38-37-68-76-68c-40,0-73,30-77,68H196c-4-38-37-68-77-68  c-39,0-72,30-76,68H26v-9c0-2-1-4-3-6l-6-6v-10l6-6c2-1,2-3,3-5c0-7,1-13,2-18h15c4,0,8-4,8-8c0-5-4-9-8-9h-9c4-10,11-18,20-25h142  c5,0,9-4,9-9V17h175h20c5,0,9-4,9-8c0-5-4-9-9-9H111c-3,0-5,2-7,4L45,88c-18,15-34,33-36,71l-6,6c-2,1-3,4-3,6v17c0,2,1,4,3,6l6,6  v13c0,5,3,9,8,9h34c5,0,9-4,9-9c0-32,27-59,59-59c33,0,60,27,60,59c0,5,4,9,9,9h136c5,0,9-4,9-9c0-32,27-59,60-59c32,0,59,27,59,59  c0,5,4,9,9,9h34c5,0,8-4,8-9v-13l6-6c2-2,3-4,3-6v-17C512,169,511,166,510,165z M119,239c-14,0-25-11-25-26c0-14,11-25,25-25  c15,0,26,11,26,25C145,228,134,239,119,239z M119,171c-23,0-42,19-42,42c0,24,19,43,42,43c24,0,43-19,43-43C162,190,143,171,119,171  z M393,239c-15,0-26-11-26-26c0-14,11-25,26-25c14,0,25,11,25,25C418,228,407,239,393,239z M393,171c-24,0-43,19-43,42  c0,24,19,43,43,43c23,0,42-19,42-43C435,190,416,171,393,171z"
   id="path2"
   style="fill:#bc9742;fill-opacity:1" />
</svg>
