<?xml version="1.0" encoding="UTF-8" standalone="no"?>
<!-- Generator: Adobe Illustrator 25.4.1, SVG Export Plug-In . SVG Version: 6.00 Build 0)  -->

<svg
   version="1.1"
   id="Capa_1"
   x="0px"
   y="0px"
   viewBox="0 0 509 394"
   style="enable-background:new 0 0 509 394;"
   xml:space="preserve"
   sodipodi:docname="staff_untitled-font-1.svg"
   inkscape:version="1.1.1 (3bf5ae0d25, 2021-09-20)"
   xmlns:inkscape="http://www.inkscape.org/namespaces/inkscape"
   xmlns:sodipodi="http://sodipodi.sourceforge.net/DTD/sodipodi-0.dtd"
   xmlns="http://www.w3.org/2000/svg"
   xmlns:svg="http://www.w3.org/2000/svg"><defs
   id="defs7" /><sodipodi:namedview
   id="namedview5"
   pagecolor="#ffffff"
   bordercolor="#666666"
   borderopacity="1.0"
   inkscape:pageshadow="2"
   inkscape:pageopacity="0.0"
   inkscape:pagecheckerboard="0"
   showgrid="false"
   inkscape:zoom="1.2385787"
   inkscape:cx="253.1127"
   inkscape:cy="197.40369"
   inkscape:window-width="1280"
   inkscape:window-height="652"
   inkscape:window-x="0"
   inkscape:window-y="0"
   inkscape:window-maximized="1"
   inkscape:current-layer="Capa_1" />
<path
   d="M160,249c0-6-5-10-10-10h-14c-6,0-10,4-10,10c0,5,4,10,10,10h14C155,259,160,254,160,249z M293,287c-5,0-10,4-10,10  c0,5,5,10,10,10h19c6,0,10-5,10-10c0-6-4-10-10-10H293z M460,242h-19c-5,0-10,5-10,10c0,6,5,10,10,10h19c6,0,10-4,10-10  C470,247,466,242,460,242z M102,49c24,0,44,19,44,43c-1,25-20,44-44,44s-43-20-43-44S78,49,102,49z M102,156c35,0,63-28,64-64  c0-35-29-63-64-63S39,57,39,92S67,156,102,156z M406,49c3,0,6,0,10,1c-14,27-39,35-53,38C365,66,384,49,406,49z M402,28c0-5,4-8,8-8  s8,3,8,8v2c-4-1-8-1-12-1h-4V28z M449,86c-10-4-17-12-22-17c3-3,5-7,7-11C442,65,448,75,449,86z M406,136c-18,0-34-12-41-29  c9-1,16-3,24-6c9-4,18-10,25-17c7,8,18,18,33,22C442,124,425,136,406,136z M406,156c29,0,54-20,62-47c7-28-5-57-30-72v-9  c0-16-13-28-28-28s-28,12-28,28v5c-28,12-44,42-38,71C350,134,376,156,406,156z M489,332h-74v-70c7-3,12-10,14-18l13-53  c28,9,47,36,47,66V332z M328,233c7-18,22-33,40-40l12,51c2,8,7,15,15,18v70h-38v-34C357,274,346,250,328,233z M337,373h-70v-54  l26-85c26,11,43,36,44,64V373z M172,298c0-30,19-56,48-65l27,86v54h-75V298z M111,332v-44l27-97c19,7,35,22,42,42  c-18,17-28,40-28,65v34H111z M20,257c0-29,18-55,45-65l26,96v44H20V257z M116,188h2l-17,61l-17-61h5H116z M268,229c2,0,3,1,5,1  l-16,53l-17-54h1H268z M420,188h2l-12,52c-1,2-3,4-5,4c-3,0-5-2-6-4l-12-52h6H420z M420,168h-27c-35,0-67,21-82,53  c-13-8-28-12-43-12h-27c-16,0-31,4-44,12c-14-32-46-53-81-53H89c-49,0-89,40-89,89v85c0,5,4,10,10,10h142v31c0,6,4,11,10,11h185  c5,0,10-5,10-11v-31h142c6,0,10-5,10-10v-85C509,208,469,168,420,168z M254,90c24,0,44,19,44,43s-20,44-44,44s-43-20-43-44  S230,90,254,90z M254,197c35,0,64-29,64-64s-29-63-64-63s-63,28-63,63S219,197,254,197z"
   id="path2"
   style="fill:#bc9742;fill-opacity:1" />
</svg>
