<?xml version="1.0" encoding="UTF-8" standalone="no"?>
<!-- Generator: Adobe Illustrator 25.4.1, SVG Export Plug-In . SVG Version: 6.00 Build 0)  -->

<svg
   version="1.1"
   id="Capa_1"
   x="0px"
   y="0px"
   viewBox="0 0 460 512"
   style="enable-background:new 0 0 460 512;"
   xml:space="preserve"
   sodipodi:docname="uco-dispatcher-center_untitled-font-1.svg"
   inkscape:version="1.1.1 (3bf5ae0d25, 2021-09-20)"
   xmlns:inkscape="http://www.inkscape.org/namespaces/inkscape"
   xmlns:sodipodi="http://sodipodi.sourceforge.net/DTD/sodipodi-0.dtd"
   xmlns="http://www.w3.org/2000/svg"
   xmlns:svg="http://www.w3.org/2000/svg"><defs
   id="defs7" /><sodipodi:namedview
   id="namedview5"
   pagecolor="#ffffff"
   bordercolor="#666666"
   borderopacity="1.0"
   inkscape:pageshadow="2"
   inkscape:pageopacity="0.0"
   inkscape:pagecheckerboard="0"
   showgrid="false"
   inkscape:zoom="0.953125"
   inkscape:cx="228.19672"
   inkscape:cy="255.47541"
   inkscape:window-width="1280"
   inkscape:window-height="652"
   inkscape:window-x="0"
   inkscape:window-y="0"
   inkscape:window-maximized="1"
   inkscape:current-layer="Capa_1" />
<path
   d="M410,452c-7-14-17-26-29-35c-4-3-10-2-14,2c-3,4-2,11,2,14c9,7,17,17,23,27c2,5,8,7,13,5C410,462,412,456,410,452z M248,492  l12-20c10-13,20-27,28-42c11-20,21-40,28-61l42,14c45,14,78,59,82,109H248z M230,483l-14-22c-8-11-16-22-23-34l36-38l38,38  c-7,11-15,23-23,34C244,461,244,460,230,483z M20,492c4-50,37-95,82-109l42-14c8,21,17,42,28,61c8,15,18,29,28,42l12,20H20z   M200,273c0-6,4-10,10-10h20c6,0,10,4,10,10s-4,10-10,10h-20C204,283,200,279,200,273z M286,329l13,28c-6,18-13,35-22,52l-34-34  L286,329z M215,375l-32,34c-9-17-16-34-22-52l12-24L215,375z M209,341c7,1,14,2,21,2c5,0,11,0,16-1l-17,19L209,341z M153,263  c-5-17-11-66-12-97l13-18c12-16,32-27,52-28c27,26,62,43,99,48l14,2c-1,21-3,42-6,61c0,6-1,10-3,21c-5,32-29,61-60,69  c-13,3-27,3-40,0c-19-5-37-19-49-38h21c4,12,15,20,28,20h20c17,0,30-13,30-30s-13-30-30-30h-20c-13,0-24,9-28,20H153z M221,60h18  c45,0,81,37,81,81v9l-13-2c-34-5-66-21-90-45c-2-2-4-3-7-3c-27,0-53,12-70,33C145,92,179,60,221,60z M120,140h-20  c5-67,61-120,130-120c68,0,124,53,130,120h-20c-1-55-46-100-101-100h-18C166,40,121,85,120,140z M130,263c-6,0-10-4-10-10v-10h8  l2,13c1,2,1,5,2,7H130z M110,223c-6,0-10-4-10-10v-53h20v3c1,20,3,41,5,60H110z M360,213c0,6-4,10-10,10h-15c2-20,4-41,5-61v-2h20  V213z M365,364l-48-16l-17-34c15-16,26-37,30-58l2-13h18c17,0,30-13,30-30v-63C380,67,313,0,230,0S80,67,80,150v63c0,13,8,24,20,28  v12c0,17,13,30,30,30h9c4,9,10,18,17,26c1,2,2,3,4,5l-17,34l-48,16C40,382,0,440,0,502c0,6,4,10,10,10h440c6,0,10-4,10-10  C460,440,420,382,365,364z M340,396c-6,0-10,4-10,10s4,10,10,10s10-4,10-10S346,396,340,396z"
   id="path2"
   style="fill:#bc9742;fill-opacity:1" />
</svg>
