<?xml version="1.0" encoding="UTF-8" standalone="no"?>
<!-- Generator: Adobe Illustrator 25.4.1, SVG Export Plug-In . SVG Version: 6.00 Build 0)  -->

<svg
   version="1.1"
   id="Capa_1"
   x="0px"
   y="0px"
   viewBox="0 0 511.53 512"
   style="enable-background:new 0 0 511.53 512;"
   xml:space="preserve"
   sodipodi:docname="Vialidades.svg"
   inkscape:version="1.1.1 (3bf5ae0d25, 2021-09-20)"
   xmlns:inkscape="http://www.inkscape.org/namespaces/inkscape"
   xmlns:sodipodi="http://sodipodi.sourceforge.net/DTD/sodipodi-0.dtd"
   xmlns="http://www.w3.org/2000/svg"
   xmlns:svg="http://www.w3.org/2000/svg"><defs
   id="defs7" /><sodipodi:namedview
   id="namedview5"
   pagecolor="#ffffff"
   bordercolor="#666666"
   borderopacity="1.0"
   inkscape:pageshadow="2"
   inkscape:pageopacity="0.0"
   inkscape:pagecheckerboard="0"
   showgrid="false"
   inkscape:zoom="0.953125"
   inkscape:cx="254.42623"
   inkscape:cy="255.47541"
   inkscape:window-width="1280"
   inkscape:window-height="652"
   inkscape:window-x="0"
   inkscape:window-y="0"
   inkscape:window-maximized="1"
   inkscape:current-layer="Capa_1" />
<path
   d="M511,281L375,6c-2-5-8-7-13-5s-7,8-5,13l136,276c2,3,5,5,9,5c1,0,3,0,4-1C511,292,513,286,511,281z M511,498l-53-141  c-2-5-8-8-13-6s-7,8-6,13l54,142c1,4,5,6,9,6c1,0,2,0,4-1C511,509,513,504,511,498z M444,318h-1c-2-5-7-8-12-6c-6,2-8,8-6,13  c1,4,5,7,9,7c1,0,3,0,4-1C443,329,446,324,444,318z M430,282L326,6c-2-5-8-7-13-5s-7,7-6,13l104,275c2,4,5,6,9,6h4  C429,293,432,287,430,282z M69,165c-5-2-11,0-13,5L1,281c-2,5,0,11,5,13c1,1,3,1,4,1c4,0,7-2,9-5l55-112C76,173,74,167,69,165z   M88,127c-5-3-11-1-13,4v1c-3,4-1,10,4,13c2,1,3,1,5,1c3,0,7-2,9-6C95,135,93,129,88,127z M150,1c-5-2-11,0-13,5L92,97  c-2,4,0,10,5,13c1,1,2,1,4,1c4,0,7-2,9-6l45-91C157,9,155,3,150,1z M199,1c-5-2-11,0-13,5L1,498c-2,6,0,11,5,13c2,1,3,1,4,1  c4,0,8-2,9-6L205,14C206,8,204,3,199,1z M256,0c-6,0-10,4-10,10v58c0,6,4,10,10,10s10-4,10-10V10C266,4,262,0,256,0z M256,108  c-6,0-10,5-10,10v59c0,5,4,10,10,10s10-5,10-10v-59C266,113,262,108,256,108z M256,217c-6,0-10,4-10,10v58c0,6,4,10,10,10  s10-4,10-10v-58C266,221,262,217,256,217z M256,325c-6,0-10,5-10,10v59c0,5,4,10,10,10s10-5,10-10v-59C266,330,262,325,256,325z   M256,434c-6,0-10,4-10,10v58c0,6,4,10,10,10s10-4,10-10v-58C266,438,262,434,256,434z"
   id="path2"
   style="fill:#bc9742;fill-opacity:1" />
</svg>
